<mxfile host="app.diagrams.net" modified="2024-04-21T21:42:37.799Z" agent="Mozilla/5.0 (Windows NT 10.0; Win64; x64) AppleWebKit/537.36 (KHTML, like Gecko) Chrome/114.0.0.0 Safari/537.36" etag="CzoL6n_MEhWtdJJLGZui" version="24.2.7" type="github">
  <diagram id="C5RBs43oDa-KdzZeNtuy" name="Page-1">
    <mxGraphModel dx="2320" dy="1073" grid="1" gridSize="10" guides="1" tooltips="1" connect="1" arrows="1" fold="1" page="1" pageScale="1" pageWidth="827" pageHeight="1169" math="0" shadow="0">
      <root>
        <mxCell id="WIyWlLk6GJQsqaUBKTNV-0" />
        <mxCell id="WIyWlLk6GJQsqaUBKTNV-1" parent="WIyWlLk6GJQsqaUBKTNV-0" />
        <mxCell id="Et9MoMlRjYVlR13N_xNO-4" value="" style="edgeStyle=orthogonalEdgeStyle;rounded=0;orthogonalLoop=1;jettySize=auto;html=1;" edge="1" parent="WIyWlLk6GJQsqaUBKTNV-1" source="Et9MoMlRjYVlR13N_xNO-0" target="Et9MoMlRjYVlR13N_xNO-2">
          <mxGeometry relative="1" as="geometry" />
        </mxCell>
        <mxCell id="Et9MoMlRjYVlR13N_xNO-0" value="Initialization" style="ellipse;whiteSpace=wrap;html=1;" vertex="1" parent="WIyWlLk6GJQsqaUBKTNV-1">
          <mxGeometry x="90" y="210" width="120" height="80" as="geometry" />
        </mxCell>
        <mxCell id="Et9MoMlRjYVlR13N_xNO-2" value="IDLE" style="ellipse;whiteSpace=wrap;html=1;" vertex="1" parent="WIyWlLk6GJQsqaUBKTNV-1">
          <mxGeometry x="294" y="210" width="120" height="80" as="geometry" />
        </mxCell>
        <mxCell id="Et9MoMlRjYVlR13N_xNO-3" value="READ" style="rounded=1;whiteSpace=wrap;html=1;" vertex="1" parent="WIyWlLk6GJQsqaUBKTNV-1">
          <mxGeometry x="520" y="220" width="120" height="60" as="geometry" />
        </mxCell>
        <mxCell id="Et9MoMlRjYVlR13N_xNO-5" value="" style="endArrow=classic;html=1;rounded=0;exitX=1;exitY=1;exitDx=0;exitDy=0;" edge="1" parent="WIyWlLk6GJQsqaUBKTNV-1" source="Et9MoMlRjYVlR13N_xNO-2">
          <mxGeometry width="50" height="50" relative="1" as="geometry">
            <mxPoint x="470" y="330" as="sourcePoint" />
            <mxPoint x="520" y="280" as="targetPoint" />
            <Array as="points">
              <mxPoint x="460" y="300" />
            </Array>
          </mxGeometry>
        </mxCell>
        <mxCell id="Et9MoMlRjYVlR13N_xNO-6" value="" style="endArrow=classic;html=1;rounded=0;exitX=0;exitY=0;exitDx=0;exitDy=0;" edge="1" parent="WIyWlLk6GJQsqaUBKTNV-1" source="Et9MoMlRjYVlR13N_xNO-3" target="Et9MoMlRjYVlR13N_xNO-2">
          <mxGeometry width="50" height="50" relative="1" as="geometry">
            <mxPoint x="500" y="120" as="sourcePoint" />
            <mxPoint x="540.5300000000001" y="186.01999999999998" as="targetPoint" />
            <Array as="points">
              <mxPoint x="450" y="190" />
            </Array>
          </mxGeometry>
        </mxCell>
        <mxCell id="Et9MoMlRjYVlR13N_xNO-7" value="Rd_req# = 1" style="ellipse;shape=cloud;whiteSpace=wrap;html=1;" vertex="1" parent="WIyWlLk6GJQsqaUBKTNV-1">
          <mxGeometry x="430" y="160" width="100" height="60" as="geometry" />
        </mxCell>
        <mxCell id="Et9MoMlRjYVlR13N_xNO-8" value="WRITE" style="rounded=1;whiteSpace=wrap;html=1;" vertex="1" parent="WIyWlLk6GJQsqaUBKTNV-1">
          <mxGeometry x="280" y="410" width="120" height="60" as="geometry" />
        </mxCell>
        <mxCell id="Et9MoMlRjYVlR13N_xNO-9" value="" style="endArrow=classic;html=1;rounded=0;exitX=0.15;exitY=-0.05;exitDx=0;exitDy=0;exitPerimeter=0;" edge="1" parent="WIyWlLk6GJQsqaUBKTNV-1" source="Et9MoMlRjYVlR13N_xNO-8">
          <mxGeometry width="50" height="50" relative="1" as="geometry">
            <mxPoint x="270" y="330" as="sourcePoint" />
            <mxPoint x="320" y="280" as="targetPoint" />
            <Array as="points">
              <mxPoint x="290" y="320" />
            </Array>
          </mxGeometry>
        </mxCell>
        <mxCell id="Et9MoMlRjYVlR13N_xNO-10" value="" style="endArrow=classic;html=1;rounded=0;entryX=0.75;entryY=0;entryDx=0;entryDy=0;exitX=0.775;exitY=0.975;exitDx=0;exitDy=0;exitPerimeter=0;" edge="1" parent="WIyWlLk6GJQsqaUBKTNV-1" source="Et9MoMlRjYVlR13N_xNO-2" target="Et9MoMlRjYVlR13N_xNO-8">
          <mxGeometry width="50" height="50" relative="1" as="geometry">
            <mxPoint x="390" y="570" as="sourcePoint" />
            <mxPoint x="440" y="520" as="targetPoint" />
            <Array as="points">
              <mxPoint x="420" y="340" />
            </Array>
          </mxGeometry>
        </mxCell>
        <mxCell id="Et9MoMlRjYVlR13N_xNO-11" value="REFRESH" style="rounded=1;whiteSpace=wrap;html=1;" vertex="1" parent="WIyWlLk6GJQsqaUBKTNV-1">
          <mxGeometry x="294" y="40" width="120" height="60" as="geometry" />
        </mxCell>
        <mxCell id="Et9MoMlRjYVlR13N_xNO-12" value="" style="endArrow=classic;html=1;rounded=0;exitX=0;exitY=0;exitDx=0;exitDy=0;entryX=0.133;entryY=1;entryDx=0;entryDy=0;entryPerimeter=0;" edge="1" parent="WIyWlLk6GJQsqaUBKTNV-1" source="Et9MoMlRjYVlR13N_xNO-2" target="Et9MoMlRjYVlR13N_xNO-11">
          <mxGeometry width="50" height="50" relative="1" as="geometry">
            <mxPoint x="250" y="150" as="sourcePoint" />
            <mxPoint x="300" y="100" as="targetPoint" />
            <Array as="points">
              <mxPoint x="270" y="160" />
            </Array>
          </mxGeometry>
        </mxCell>
        <mxCell id="Et9MoMlRjYVlR13N_xNO-13" value="" style="endArrow=classic;html=1;rounded=0;exitX=0.75;exitY=0.025;exitDx=0;exitDy=0;entryX=0.133;entryY=1;entryDx=0;entryDy=0;entryPerimeter=0;exitPerimeter=0;" edge="1" parent="WIyWlLk6GJQsqaUBKTNV-1" source="Et9MoMlRjYVlR13N_xNO-2">
          <mxGeometry width="50" height="50" relative="1" as="geometry">
            <mxPoint x="382" y="220" as="sourcePoint" />
            <mxPoint x="380" y="98" as="targetPoint" />
            <Array as="points">
              <mxPoint x="410" y="158" />
            </Array>
          </mxGeometry>
        </mxCell>
        <mxCell id="Et9MoMlRjYVlR13N_xNO-14" value="Rd_req# = 0" style="ellipse;shape=cloud;whiteSpace=wrap;html=1;" vertex="1" parent="WIyWlLk6GJQsqaUBKTNV-1">
          <mxGeometry x="430" y="280" width="100" height="60" as="geometry" />
        </mxCell>
        <mxCell id="Et9MoMlRjYVlR13N_xNO-15" value="W_req# = 0" style="ellipse;shape=cloud;whiteSpace=wrap;html=1;" vertex="1" parent="WIyWlLk6GJQsqaUBKTNV-1">
          <mxGeometry x="350" y="320" width="100" height="60" as="geometry" />
        </mxCell>
        <mxCell id="Et9MoMlRjYVlR13N_xNO-16" value="W_req# = 1" style="ellipse;shape=cloud;whiteSpace=wrap;html=1;" vertex="1" parent="WIyWlLk6GJQsqaUBKTNV-1">
          <mxGeometry x="220" y="330" width="100" height="60" as="geometry" />
        </mxCell>
        <mxCell id="Et9MoMlRjYVlR13N_xNO-18" value="" style="endArrow=classic;html=1;rounded=0;entryX=0;entryY=0.5;entryDx=0;entryDy=0;" edge="1" parent="WIyWlLk6GJQsqaUBKTNV-1" target="Et9MoMlRjYVlR13N_xNO-0">
          <mxGeometry width="50" height="50" relative="1" as="geometry">
            <mxPoint x="10" y="250" as="sourcePoint" />
            <mxPoint x="60" y="200" as="targetPoint" />
          </mxGeometry>
        </mxCell>
        <mxCell id="Et9MoMlRjYVlR13N_xNO-19" value="RESET#=0" style="ellipse;shape=cloud;whiteSpace=wrap;html=1;" vertex="1" parent="WIyWlLk6GJQsqaUBKTNV-1">
          <mxGeometry x="-20" y="200" width="100" height="60" as="geometry" />
        </mxCell>
        <mxCell id="Et9MoMlRjYVlR13N_xNO-20" value="INIT#=1" style="ellipse;shape=cloud;whiteSpace=wrap;html=1;" vertex="1" parent="WIyWlLk6GJQsqaUBKTNV-1">
          <mxGeometry x="194" y="190" width="100" height="60" as="geometry" />
        </mxCell>
        <mxCell id="Et9MoMlRjYVlR13N_xNO-21" value="Ref_req#=0" style="ellipse;shape=cloud;whiteSpace=wrap;html=1;" vertex="1" parent="WIyWlLk6GJQsqaUBKTNV-1">
          <mxGeometry x="200" y="90" width="100" height="60" as="geometry" />
        </mxCell>
        <mxCell id="Et9MoMlRjYVlR13N_xNO-22" value="Ref_req#=1" style="ellipse;shape=cloud;whiteSpace=wrap;html=1;" vertex="1" parent="WIyWlLk6GJQsqaUBKTNV-1">
          <mxGeometry x="380" y="110" width="100" height="60" as="geometry" />
        </mxCell>
      </root>
    </mxGraphModel>
  </diagram>
</mxfile>
